<?xml version="1.0" encoding="utf-8"?>
<!-- Generator: Adobe Illustrator 24.0.1, SVG Export Plug-In . SVG Version: 6.00 Build 0)  -->
<svg version="1.1" id="Layer_1" xmlns="http://www.w3.org/2000/svg" xmlns:xlink="http://www.w3.org/1999/xlink" x="0px" y="0px"
	 viewBox="0 0 500 500" style="enable-background:new 0 0 500 500;" xml:space="preserve">
<style type="text/css">
	.st0{fill:#F8E9D6;}
	.st1{fill:#9B8368;}
	.st2{fill:none;stroke:#C7B299;stroke-miterlimit:10;}
	.st3{fill:#2C150D;}
	.st4{fill:#B98068;}
	.st5{fill:#775144;stroke:#2C150D;stroke-miterlimit:10;}
	.st6{fill:#F99830;stroke:#2C150D;stroke-miterlimit:10;}
	.st7{fill:#2C150D;stroke:#2C150D;stroke-miterlimit:10;}
</style>
<g>
	<path class="st0" d="M491.44,281.79c5.54,23.42,0.05,43.89-16.45,61.41c-0.72,24.06-11.31,42.41-31.79,55.06
		c-6.92,23.05-21.9,38.04-44.95,44.95c-12.65,20.48-31,31.07-55.06,31.79c-17.52,16.5-37.99,21.99-61.41,16.45
		c-21.19,11.41-42.38,11.41-63.57,0c-23.42,5.54-43.89,0.05-61.41-16.45c-24.06-0.72-42.41-11.31-55.06-31.79
		c-23.05-6.92-38.04-21.9-44.95-44.95c-20.48-12.65-31.07-31-31.79-55.06c-16.5-17.52-21.99-37.99-16.45-61.41
		c-11.41-21.19-11.41-42.38,0-63.57c-5.53-23.42-0.05-43.89,16.45-61.41c0.72-24.06,11.31-42.41,31.79-55.06
		c6.92-23.05,21.9-38.04,44.95-44.95c12.65-20.48,31-31.07,55.06-31.79c17.52-16.5,37.99-21.99,61.41-16.45
		c21.19-11.41,42.38-11.41,63.57,0c23.42-5.53,43.89-0.05,61.41,16.45c24.06,0.72,42.41,11.31,55.06,31.79
		c23.05,6.92,38.04,21.9,44.95,44.95c20.48,12.65,31.07,31,31.79,55.06c16.5,17.52,21.99,37.99,16.45,61.41
		C502.85,239.4,502.85,260.6,491.44,281.79z"/>
	<g>
		<path class="st1" d="M358.86,427.92h-211c-6.63,0-12-5.37-12-12v-281c0-6.63,5.37-12,12-12h211c6.63,0,12,5.37,12,12v281
			C370.86,422.55,365.49,427.92,358.86,427.92z"/>
		<g>
			<line class="st2" x1="173.57" y1="136.7" x2="173.57" y2="150.7"/>
			<line class="st2" x1="211.57" y1="136.7" x2="211.57" y2="150.7"/>
			<line class="st2" x1="249.57" y1="136.7" x2="249.57" y2="150.7"/>
			<line class="st2" x1="287.57" y1="136.7" x2="287.57" y2="150.7"/>
			<line class="st2" x1="325.57" y1="136.7" x2="325.57" y2="150.7"/>
			<line class="st2" x1="363.57" y1="136.7" x2="363.57" y2="152.7"/>
			<line class="st2" x1="363.57" y1="248.7" x2="363.57" y2="264.7"/>
			<line class="st2" x1="363.57" y1="279.7" x2="363.57" y2="295.7"/>
			<line class="st2" x1="363.57" y1="311.7" x2="363.57" y2="327.7"/>
			<line class="st2" x1="173.57" y1="344.7" x2="173.57" y2="360.7"/>
			<line class="st2" x1="211.57" y1="344.7" x2="211.57" y2="360.7"/>
			<line class="st2" x1="249.57" y1="344.7" x2="249.57" y2="360.7"/>
			<line class="st2" x1="287.57" y1="344.7" x2="287.57" y2="360.7"/>
			<line class="st2" x1="325.57" y1="344.7" x2="325.57" y2="360.7"/>
			<line class="st2" x1="363.57" y1="344.7" x2="363.57" y2="360.7"/>
			<line class="st2" x1="173.57" y1="376.7" x2="173.57" y2="392.7"/>
			<line class="st2" x1="211.57" y1="376.7" x2="211.57" y2="392.7"/>
			<line class="st2" x1="249.57" y1="376.7" x2="249.57" y2="392.7"/>
			<line class="st2" x1="287.57" y1="376.7" x2="287.57" y2="392.7"/>
			<line class="st2" x1="325.57" y1="376.7" x2="325.57" y2="392.7"/>
			<line class="st2" x1="363.57" y1="376.7" x2="363.57" y2="392.7"/>
			<line class="st2" x1="173.57" y1="408.7" x2="173.57" y2="422.7"/>
			<line class="st2" x1="211.57" y1="408.7" x2="211.57" y2="422.7"/>
			<line class="st2" x1="249.57" y1="408.7" x2="249.57" y2="422.7"/>
			<line class="st2" x1="287.57" y1="408.7" x2="287.57" y2="422.7"/>
			<line class="st2" x1="325.57" y1="408.7" x2="325.57" y2="422.7"/>
			<line class="st2" x1="363.57" y1="408.7" x2="363.57" y2="422.7"/>
			<line class="st2" x1="362.57" y1="185.2" x2="362.57" y2="200.2"/>
			<line class="st2" x1="362.86" y1="216.92" x2="362.86" y2="232.92"/>
		</g>
		<g>
			<line class="st2" x1="153.86" y1="122.92" x2="153.86" y2="136.92"/>
			<line class="st2" x1="191.86" y1="122.92" x2="191.86" y2="136.92"/>
			<line class="st2" x1="229.86" y1="122.92" x2="229.86" y2="136.92"/>
			<line class="st2" x1="267.86" y1="122.92" x2="267.86" y2="136.92"/>
			<line class="st2" x1="305.86" y1="122.92" x2="305.86" y2="136.92"/>
			<line class="st2" x1="343.86" y1="122.92" x2="343.86" y2="136.92"/>
			<line class="st2" x1="153.86" y1="152.92" x2="153.86" y2="166.92"/>
			<line class="st2" x1="191.86" y1="152.92" x2="191.86" y2="166.92"/>
			<line class="st2" x1="229.86" y1="152.92" x2="229.86" y2="166.92"/>
			<line class="st2" x1="267.86" y1="152.92" x2="267.86" y2="166.92"/>
			<line class="st2" x1="305.86" y1="152.92" x2="305.86" y2="166.92"/>
			<line class="st2" x1="343.86" y1="152.92" x2="343.86" y2="166.92"/>
			<line class="st2" x1="153.86" y1="232.92" x2="153.86" y2="248.92"/>
			<line class="st2" x1="191.86" y1="232.92" x2="191.86" y2="248.92"/>
			<line class="st2" x1="229.86" y1="232.92" x2="229.86" y2="248.92"/>
			<line class="st2" x1="267.86" y1="232.92" x2="267.86" y2="248.92"/>
			<line class="st2" x1="305.86" y1="232.92" x2="305.86" y2="248.92"/>
			<line class="st2" x1="343.86" y1="232.92" x2="343.86" y2="248.92"/>
			<line class="st2" x1="153.86" y1="263.92" x2="153.86" y2="279.92"/>
			<line class="st2" x1="191.86" y1="263.92" x2="191.86" y2="279.92"/>
			<line class="st2" x1="229.86" y1="263.92" x2="229.86" y2="279.92"/>
			<line class="st2" x1="267.86" y1="263.92" x2="267.86" y2="279.92"/>
			<line class="st2" x1="305.86" y1="263.92" x2="305.86" y2="279.92"/>
			<line class="st2" x1="343.86" y1="263.92" x2="343.86" y2="279.92"/>
			<line class="st2" x1="153.86" y1="295.92" x2="153.86" y2="311.92"/>
			<line class="st2" x1="191.86" y1="295.92" x2="191.86" y2="311.92"/>
			<line class="st2" x1="229.86" y1="295.92" x2="229.86" y2="311.92"/>
			<line class="st2" x1="267.86" y1="295.92" x2="267.86" y2="311.92"/>
			<line class="st2" x1="305.86" y1="295.92" x2="305.86" y2="311.92"/>
			<line class="st2" x1="343.86" y1="295.92" x2="343.86" y2="311.92"/>
			<line class="st2" x1="153.86" y1="328.92" x2="153.86" y2="344.92"/>
			<line class="st2" x1="191.86" y1="328.92" x2="191.86" y2="344.92"/>
			<line class="st2" x1="229.86" y1="328.92" x2="229.86" y2="344.92"/>
			<line class="st2" x1="267.86" y1="328.92" x2="267.86" y2="344.92"/>
			<line class="st2" x1="305.86" y1="328.92" x2="305.86" y2="344.92"/>
			<line class="st2" x1="343.86" y1="328.92" x2="343.86" y2="344.92"/>
			<line class="st2" x1="153.86" y1="360.92" x2="153.86" y2="376.92"/>
			<line class="st2" x1="191.86" y1="360.92" x2="191.86" y2="376.92"/>
			<line class="st2" x1="229.86" y1="360.92" x2="229.86" y2="376.92"/>
			<line class="st2" x1="267.86" y1="360.92" x2="267.86" y2="376.92"/>
			<line class="st2" x1="305.86" y1="360.92" x2="305.86" y2="376.92"/>
			<line class="st2" x1="343.86" y1="360.92" x2="343.86" y2="376.92"/>
			<line class="st2" x1="153.86" y1="392.92" x2="153.86" y2="406.92"/>
			<line class="st2" x1="191.86" y1="392.92" x2="191.86" y2="406.92"/>
			<line class="st2" x1="229.86" y1="392.92" x2="229.86" y2="406.92"/>
			<line class="st2" x1="267.86" y1="392.92" x2="267.86" y2="406.92"/>
			<line class="st2" x1="305.86" y1="392.92" x2="305.86" y2="406.92"/>
			<line class="st2" x1="343.86" y1="392.92" x2="343.86" y2="406.92"/>
			<line class="st2" x1="153.86" y1="152.42" x2="153.86" y2="167.42"/>
			<line class="st2" x1="191.86" y1="152.42" x2="191.86" y2="167.42"/>
			<line class="st2" x1="229.86" y1="152.42" x2="229.86" y2="167.42"/>
			<line class="st2" x1="267.86" y1="152.42" x2="267.86" y2="167.42"/>
			<line class="st2" x1="305.86" y1="152.42" x2="305.86" y2="167.42"/>
			<line class="st2" x1="343.86" y1="152.42" x2="343.86" y2="167.42"/>
		</g>
		<g>
			<g>
				<line class="st2" x1="135.86" y1="136.42" x2="370.86" y2="136.42"/>
			</g>
			<g>
				<line class="st2" x1="135.86" y1="152.42" x2="370.86" y2="152.42"/>
			</g>
			<g>
				<line class="st2" x1="135.86" y1="168.42" x2="370.86" y2="168.42"/>
			</g>
			<g>
				<line class="st2" x1="135.86" y1="184.42" x2="370.86" y2="184.42"/>
			</g>
			<g>
				<line class="st2" x1="135.86" y1="200.42" x2="370.86" y2="200.42"/>
			</g>
			<g>
				<line class="st2" x1="135.86" y1="216.42" x2="370.86" y2="216.42"/>
			</g>
			<g>
				<line class="st2" x1="135.86" y1="232.42" x2="370.86" y2="232.42"/>
			</g>
			<g>
				<line class="st2" x1="135.86" y1="248.42" x2="370.86" y2="248.42"/>
			</g>
			<g>
				<line class="st2" x1="135.86" y1="264.42" x2="370.86" y2="264.42"/>
			</g>
			<g>
				<line class="st2" x1="135.86" y1="280.42" x2="370.86" y2="280.42"/>
			</g>
			<g>
				<line class="st2" x1="135.86" y1="296.42" x2="370.86" y2="296.42"/>
			</g>
			<g>
				<line class="st2" x1="135.86" y1="312.42" x2="370.86" y2="312.42"/>
			</g>
			<g>
				<line class="st2" x1="135.86" y1="328.42" x2="370.86" y2="328.42"/>
			</g>
			<g>
				<line class="st2" x1="135.86" y1="344.42" x2="370.86" y2="344.42"/>
			</g>
			<g>
				<line class="st2" x1="135.86" y1="360.42" x2="370.86" y2="360.42"/>
			</g>
			<g>
				<line class="st2" x1="135.86" y1="376.42" x2="370.86" y2="376.42"/>
			</g>
			<g>
				<line class="st2" x1="135.86" y1="392.42" x2="370.86" y2="392.42"/>
			</g>
			<g>
				<line class="st2" x1="135.86" y1="408.42" x2="370.86" y2="408.42"/>
			</g>
		</g>
		<g>
			<rect x="157.32" y="150.42" class="st0" width="193" height="199"/>
			<path class="st3" d="M349.82,150.92v198h-192v-198H349.82 M350.82,149.92h-194v200h194V149.92L350.82,149.92z"/>
		</g>
		<g>
			<g>
				<polygon class="st3" points="144.76,219.92 129.86,219.92 157.26,149.92 172.15,149.92 				"/>
			</g>
			<g>
				<polygon class="st4" points="159.65,219.92 144.76,219.92 172.15,149.92 187.04,149.92 				"/>
			</g>
			<g>
				<polygon class="st3" points="174.54,219.92 159.65,219.92 187.04,149.92 201.94,149.92 				"/>
			</g>
			<g>
				<polygon class="st4" points="189.43,219.92 174.54,219.92 201.94,149.92 216.83,149.92 				"/>
			</g>
			<g>
				<polygon class="st3" points="204.33,219.92 189.43,219.92 216.83,149.92 231.72,149.92 				"/>
			</g>
			<g>
				<polygon class="st4" points="219.22,219.92 204.33,219.92 231.72,149.92 246.61,149.92 				"/>
			</g>
			<g>
				<polygon class="st3" points="234.11,219.92 219.22,219.92 246.61,149.92 261.51,149.92 				"/>
			</g>
			<g>
				<polygon class="st4" points="249.01,219.92 234.11,219.92 261.51,149.92 276.4,149.92 				"/>
			</g>
			<g>
				<polygon class="st3" points="263.9,219.92 249.01,219.92 276.4,149.92 291.29,149.92 				"/>
			</g>
			<g>
				<polygon class="st4" points="278.79,219.92 263.9,219.92 291.29,149.92 306.19,149.92 				"/>
			</g>
			<g>
				<polygon class="st3" points="293.68,219.92 278.79,219.92 306.19,149.92 321.08,149.92 				"/>
			</g>
			<g>
				<polygon class="st4" points="308.58,219.92 293.68,219.92 321.08,149.92 335.97,149.92 				"/>
			</g>
			<g>
				<polygon class="st3" points="323.47,219.92 308.58,219.92 335.97,149.92 350.86,149.92 				"/>
			</g>
			<path class="st5" d="M316.07,234.92H137.65c-4.03,0-7.29-3.26-7.29-7.29v-7.71h193v7.71
				C323.36,231.66,320.1,234.92,316.07,234.92z"/>
		</g>
		<g>
			<path class="st3" d="M148.46,228.6c0.22,0,0.39,0.2,0.35,0.41c-0.06,0.37-0.19,0.7-0.39,1c-0.26,0.41-0.63,0.73-1.11,0.95
				c-0.48,0.22-1.02,0.34-1.64,0.34c-1.01,0-1.81-0.33-2.39-0.99c-0.58-0.66-0.87-1.58-0.87-2.78v-0.38c0-0.75,0.13-1.41,0.39-1.97
				c0.26-0.56,0.64-1,1.13-1.31c0.49-0.31,1.06-0.46,1.71-0.46c0.93,0,1.68,0.25,2.25,0.74c0.47,0.41,0.77,0.94,0.91,1.61
				c0.04,0.22-0.13,0.42-0.35,0.42h-1.12c-0.17,0-0.32-0.13-0.35-0.3c-0.05-0.31-0.16-0.55-0.33-0.7c-0.22-0.2-0.56-0.31-1.01-0.31
				c-0.46,0-0.8,0.17-1.01,0.52c-0.21,0.34-0.33,0.89-0.34,1.65v0.54c0,0.82,0.1,1.4,0.31,1.76c0.21,0.35,0.56,0.53,1.06,0.53
				c0.43,0,0.75-0.1,0.98-0.3c0.17-0.15,0.28-0.37,0.33-0.65c0.03-0.17,0.17-0.3,0.35-0.3H148.46z"/>
			<path class="st3" d="M149.42,228.3c0-0.57,0.11-1.08,0.33-1.52c0.22-0.44,0.54-0.79,0.96-1.03c0.42-0.24,0.9-0.36,1.46-0.36
				c0.86,0,1.53,0.26,2.02,0.79c0.49,0.53,0.74,1.25,0.74,2.16v0.06c0,0.89-0.25,1.59-0.74,2.12c-0.49,0.52-1.17,0.78-2.01,0.78
				c-0.81,0-1.47-0.24-1.96-0.73c-0.49-0.49-0.76-1.15-0.8-1.98L149.42,228.3z M151.2,228.41c0,0.53,0.08,0.91,0.25,1.16
				c0.17,0.25,0.41,0.37,0.73,0.37c0.63,0,0.96-0.49,0.97-1.46v-0.18c0-1.02-0.33-1.53-0.98-1.53c-0.6,0-0.92,0.44-0.97,1.32
				L151.2,228.41z"/>
			<path class="st3" d="M156.12,230.85v-3.77c0-0.19-0.16-0.35-0.35-0.35h-0.13c-0.19,0-0.35-0.16-0.35-0.35v-0.53
				c0-0.19,0.16-0.35,0.35-0.35h0.48v-0.45c0-0.65,0.19-1.15,0.58-1.51c0.38-0.36,0.92-0.54,1.62-0.54c0.17,0,0.35,0.02,0.54,0.05
				c0.17,0.03,0.3,0.18,0.3,0.35l0,1.02c-0.11-0.03-0.26-0.05-0.44-0.05c-0.54,0-0.81,0.23-0.81,0.7v0.44h0.76
				c0.19,0,0.35,0.16,0.35,0.35v0.53c0,0.19-0.16,0.35-0.35,0.35h-0.41c-0.19,0-0.35,0.16-0.35,0.35v3.77
				c0,0.19-0.16,0.35-0.35,0.35h-1.08C156.27,231.2,156.12,231.05,156.12,230.85z"/>
			<path class="st3" d="M160.04,230.85v-3.77c0-0.19-0.16-0.35-0.35-0.35h-0.13c-0.19,0-0.35-0.16-0.35-0.35v-0.53
				c0-0.19,0.16-0.35,0.35-0.35h0.48v-0.45c0-0.65,0.19-1.15,0.58-1.51c0.38-0.36,0.92-0.54,1.62-0.54c0.17,0,0.35,0.02,0.54,0.05
				c0.17,0.03,0.3,0.18,0.3,0.35l0,1.02c-0.11-0.03-0.26-0.05-0.44-0.05c-0.54,0-0.81,0.23-0.81,0.7v0.44h0.76
				c0.19,0,0.35,0.16,0.35,0.35v0.53c0,0.19-0.16,0.35-0.35,0.35h-0.41c-0.19,0-0.35,0.16-0.35,0.35v3.77
				c0,0.19-0.16,0.35-0.35,0.35h-1.08C160.2,231.2,160.04,231.05,160.04,230.85z"/>
			<path class="st3" d="M173.98,230.86c-0.32,0.32-1.41,0.44-1.88,0.44c-0.88,0-1.59-0.26-2.13-0.78c-0.54-0.52-0.81-1.2-0.81-2.04
				v-0.15c0-0.58,0.11-1.1,0.32-1.54c0.22-0.45,0.53-0.79,0.95-1.04c0.42-0.24,0.91-0.37,1.48-0.37c0.8,0,1.44,0.25,1.9,0.75
				c0.47,0.5,0.7,1.19,0.7,2.08v0.36c0,0.18-0.15,0.33-0.33,0.33h-2.73c-0.25,0-0.43,0.28-0.29,0.49c0.06,0.1,0.14,0.18,0.23,0.26
				c0.21,0.18,0.49,0.27,0.83,0.27c0.56,0,1.44,0,1.76-0.38 M171.9,226.76c-0.39,0-0.66,0.19-0.81,0.58
				c-0.09,0.22,0.08,0.46,0.31,0.46l1.37,0v-0.14c0.01-0.28-0.07-0.51-0.22-0.66C172.4,226.84,172.18,226.76,171.9,226.76z"/>
			<path class="st3" d="M168.09,230.86c-0.32,0.32-1.41,0.44-1.88,0.44c-0.88,0-1.59-0.26-2.13-0.78c-0.54-0.52-0.81-1.2-0.81-2.04
				v-0.15c0-0.58,0.11-1.1,0.32-1.54c0.22-0.45,0.53-0.79,0.95-1.04c0.42-0.24,0.91-0.37,1.48-0.37c0.8,0,1.44,0.25,1.9,0.75
				c0.47,0.5,0.7,1.19,0.7,2.08v0.36c0,0.18-0.15,0.33-0.33,0.33h-2.73c-0.25,0-0.43,0.28-0.29,0.49c0.06,0.1,0.14,0.18,0.23,0.26
				c0.21,0.18,0.49,0.27,0.83,0.27c0.56,0,1.44,0,1.76-0.38 M166.01,226.76c-0.39,0-0.66,0.19-0.81,0.58
				c-0.09,0.22,0.08,0.46,0.31,0.46l1.37,0v-0.14c0.01-0.28-0.07-0.51-0.22-0.66C166.51,226.84,166.29,226.76,166.01,226.76z"/>
			<path class="st3" d="M180.99,224.96h-1.61c-0.19,0-0.35,0.16-0.35,0.35v5.55c0,0.19-0.16,0.35-0.35,0.35h-1.15
				c-0.19,0-0.35-0.16-0.35-0.35v-5.55c0-0.19-0.16-0.35-0.35-0.35h-1.56c-0.19,0-0.35-0.16-0.35-0.35v-0.73
				c0-0.19,0.16-0.35,0.35-0.35h5.73c0.19,0,0.35,0.16,0.35,0.35v0.73C181.35,224.8,181.19,224.96,180.99,224.96z"/>
			<path class="st3" d="M186.55,227.95h-2.21c-0.19,0-0.35,0.16-0.35,0.35v1.13c0,0.19,0.16,0.35,0.35,0.35h2.74
				c0.19,0,0.35,0.16,0.35,0.35v0.72c0,0.19-0.16,0.35-0.35,0.35h-4.6c-0.19,0-0.35-0.16-0.35-0.35v-6.97
				c0-0.19,0.16-0.35,0.35-0.35h4.61c0.19,0,0.35,0.16,0.35,0.35v0.73c0,0.19-0.16,0.35-0.35,0.35h-2.75
				c-0.19,0-0.35,0.16-0.35,0.35v0.92c0,0.19,0.16,0.35,0.35,0.35h2.21c0.19,0,0.35,0.16,0.35,0.35v0.67
				C186.9,227.79,186.74,227.95,186.55,227.95z"/>
			<path class="st3" d="M190.66,228.5l-0.53,0.58c-0.05,0.06-0.09,0.16-0.09,0.24v1.54c0,0.19-0.16,0.35-0.35,0.35h-1.15
				c-0.19,0-0.35-0.16-0.35-0.35v-6.97c0-0.19,0.16-0.35,0.35-0.35h1.15c0.19,0,0.35,0.16,0.35,0.35v1.87
				c0,0.64,0.29,0.73,0.64,0.19l0,0l1.55-2.26c0.07-0.1,0.17-0.15,0.29-0.15h1.4c0.29,0,0.46,0.33,0.28,0.56l-2.02,2.64
				c-0.09,0.11-0.1,0.27-0.02,0.4l2.15,3.54c0.14,0.23-0.03,0.53-0.3,0.53h-1.37c-0.13,0-0.24-0.07-0.3-0.18l-1.43-2.5
				C190.85,228.44,190.73,228.43,190.66,228.5z"/>
		</g>
		<rect x="156.86" y="337.42" class="st6" width="194" height="13"/>
		<g>
			<polygon class="st7" points="211.86,337.42 195.86,337.42 193.86,297.42 213.86,297.42 			"/>
			<polygon class="st6" points="212.86,327.42 194.86,327.42 193.86,307.92 213.86,307.92 			"/>
			<path class="st6" d="M213.86,292.92v-2.32c0-0.65-0.53-1.18-1.18-1.18h-17.63c-0.65,0-1.18,0.53-1.18,1.18v2.32h-1v5h22v-5
				H213.86z"/>
		</g>
		<g>
			<polygon class="st7" points="241.02,337.48 225.02,337.48 223.02,297.48 243.02,297.48 			"/>
			<polygon class="st6" points="242.02,327.48 224.02,327.48 223.02,307.98 243.02,307.98 			"/>
			<path class="st6" d="M243.02,292.98v-2.32c0-0.65-0.53-1.18-1.18-1.18H224.2c-0.65,0-1.18,0.53-1.18,1.18v2.32h-1v5h22v-5H243.02
				z"/>
		</g>
		<g>
			<path class="st0" d="M153.86,130.42V91.26l0.05-0.32c0.51-10.39,9.06-18.52,19.45-18.52s18.94,8.14,19.45,18.52l0.02,0.48h1.05
				l0.02-0.48c0.51-10.39,9.06-18.52,19.45-18.52s18.94,8.14,19.45,18.52l0.02,0.48h1.05l0.02-0.48
				c0.51-10.39,9.06-18.52,19.45-18.52s18.94,8.14,19.45,18.52l0.02,0.48h1.05l0.02-0.48c0.52-10.39,9.06-18.52,19.45-18.52
				s18.94,8.14,19.45,18.52l0.02,0.48h1.05l0.02-0.48c0.52-10.39,9.06-18.52,19.45-18.52s18.94,8.14,19.45,18.52l0.02,0.48h0.03v39
				H153.86z"/>
			<path class="st3" d="M333.36,72.92c10.12,0,18.45,7.93,18.95,18.05l0.05,0.95h0v38h-198v-38h0l0.05-0.95
				c0.5-10.12,8.83-18.05,18.95-18.05s18.45,7.93,18.95,18.05l0.05,0.95h0.95h0.1h0.95l0.05-0.95c0.5-10.12,8.83-18.05,18.95-18.05
				s18.45,7.93,18.95,18.05l0.05,0.95h0.95h0.1h0.95l0.05-0.95c0.5-10.12,8.83-18.05,18.95-18.05c10.12,0,18.45,7.93,18.95,18.05
				l0.05,0.95h0.95h0.1h0.95l0.05-0.95c0.5-10.12,8.83-18.05,18.95-18.05s18.45,7.93,18.95,18.05l0.05,0.95h0.95h0.1h0.95l0.05-0.95
				C314.91,80.85,323.24,72.92,333.36,72.92 M333.36,71.92c-10.71,0-19.43,8.42-19.95,19h-0.1c-0.52-10.58-9.24-19-19.95-19
				s-19.43,8.42-19.95,19h-0.1c-0.52-10.58-9.24-19-19.95-19c-10.71,0-19.43,8.42-19.95,19h-0.1c-0.52-10.58-9.24-19-19.95-19
				c-10.71,0-19.43,8.42-19.95,19h-0.1c-0.52-10.58-9.24-19-19.95-19c-10.71,0-19.43,8.42-19.95,19h-0.05v40h200v-40h-0.05
				C352.79,80.34,344.07,71.92,333.36,71.92L333.36,71.92z"/>
		</g>
		<g>
			<path class="st3" d="M192.46,112.36c0.66,0,1.18,0.6,1.07,1.26c-0.2,1.13-0.59,2.15-1.19,3.07c-0.81,1.25-1.94,2.22-3.4,2.91
				s-3.13,1.03-5,1.03c-3.09,0-5.52-1-7.3-3.01c-1.78-2.01-2.67-4.84-2.67-8.51v-1.16c0-2.3,0.4-4.31,1.2-6.03
				c0.8-1.72,1.96-3.06,3.46-4c1.51-0.94,3.25-1.41,5.23-1.41c2.85,0,5.15,0.75,6.88,2.25c1.44,1.25,2.36,2.88,2.77,4.91
				c0.13,0.66-0.38,1.29-1.06,1.29l-3.43,0c-0.53,0-0.98-0.4-1.06-0.93c-0.15-0.95-0.48-1.67-1-2.15c-0.68-0.62-1.71-0.93-3.1-0.93
				c-1.41,0-2.44,0.53-3.1,1.58c-0.66,1.05-1,2.73-1.03,5.04v1.66c0,2.5,0.31,4.29,0.94,5.37c0.63,1.08,1.71,1.61,3.25,1.61
				c1.3,0,2.3-0.31,2.99-0.92c0.52-0.46,0.86-1.13,1.01-2c0.09-0.52,0.53-0.91,1.06-0.91L192.46,112.36z"/>
			<path class="st3" d="M195.41,111.42c0-1.74,0.34-3.29,1.02-4.65c0.68-1.36,1.65-2.4,2.92-3.13s2.76-1.1,4.47-1.1
				c2.62,0,4.68,0.81,6.19,2.42c1.51,1.62,2.26,3.82,2.26,6.6v0.19c0,2.72-0.76,4.87-2.27,6.47c-1.51,1.59-3.56,2.39-6.15,2.39
				c-2.49,0-4.48-0.74-5.99-2.23c-1.51-1.49-2.32-3.5-2.44-6.05L195.41,111.42z M200.85,111.76c0,1.61,0.25,2.79,0.76,3.54
				c0.51,0.75,1.25,1.13,2.24,1.13c1.94,0,2.93-1.49,2.97-4.46v-0.55c0-3.13-1-4.69-3-4.69c-1.82,0-2.8,1.35-2.96,4.04
				L200.85,111.76z"/>
			<path class="st3" d="M215.87,119.23v-11.52c0-0.59-0.48-1.07-1.07-1.07h-0.39c-0.59,0-1.07-0.48-1.07-1.07v-1.62
				c0-0.59,0.48-1.07,1.07-1.07h1.46v-1.39c0-1.99,0.59-3.53,1.76-4.63c1.17-1.1,2.82-1.64,4.94-1.64c0.52,0,1.07,0.05,1.65,0.15
				c0.52,0.09,0.9,0.54,0.91,1.06l0.01,3.12c-0.33-0.1-0.78-0.14-1.34-0.14c-1.65,0-2.47,0.71-2.47,2.13v1.34h2.33
				c0.59,0,1.07,0.48,1.07,1.07v1.62c0,0.59-0.48,1.07-1.07,1.07h-1.26c-0.59,0-1.07,0.48-1.07,1.07v11.52
				c0,0.59-0.48,1.07-1.07,1.07h-3.31C216.35,120.3,215.87,119.82,215.87,119.23z"/>
			<path class="st3" d="M227.85,119.23v-11.52c0-0.59-0.48-1.07-1.07-1.07h-0.39c-0.59,0-1.07-0.48-1.07-1.07v-1.62
				c0-0.59,0.48-1.07,1.07-1.07h1.46v-1.39c0-1.99,0.59-3.53,1.76-4.63c1.17-1.1,2.82-1.64,4.94-1.64c0.52,0,1.07,0.05,1.65,0.15
				c0.52,0.09,0.9,0.54,0.91,1.06l0.01,3.12c-0.33-0.1-0.78-0.14-1.34-0.14c-1.65,0-2.47,0.71-2.47,2.13v1.34h2.33
				c0.59,0,1.07,0.48,1.07,1.07v1.62c0,0.59-0.48,1.07-1.07,1.07h-1.26c-0.59,0-1.07,0.48-1.07,1.07v11.52
				c0,0.59-0.48,1.07-1.07,1.07h-3.31C228.33,120.3,227.85,119.82,227.85,119.23z"/>
			<path class="st3" d="M270.45,119.27c-0.96,0.96-4.32,1.36-5.75,1.36c-2.68,0-4.85-0.8-6.51-2.39c-1.66-1.6-2.49-3.67-2.49-6.23
				v-0.45c0-1.78,0.33-3.36,0.99-4.72s1.63-2.42,2.9-3.17c1.27-0.75,2.78-1.12,4.52-1.12c2.46,0,4.39,0.76,5.81,2.28
				c1.42,1.52,2.13,3.64,2.13,6.36v1.09c0,0.56-0.46,1.02-1.02,1.02l-8.33,0c-0.77,0-1.31,0.86-0.89,1.51
				c0.19,0.3,0.42,0.56,0.69,0.79c0.66,0.56,1.51,0.84,2.55,0.84c1.7,0,4.41,0,5.38-1.17 M264.09,106.74
				c-1.19,0-2.02,0.59-2.49,1.76c-0.27,0.67,0.23,1.4,0.95,1.4l4.19,0v-0.42c0.02-0.87-0.2-1.54-0.66-2.02
				C265.62,106.98,264.95,106.74,264.09,106.74z"/>
			<path class="st3" d="M252.45,119.27c-0.96,0.96-4.32,1.36-5.75,1.36c-2.68,0-4.85-0.8-6.51-2.39c-1.66-1.6-2.49-3.67-2.49-6.23
				v-0.45c0-1.78,0.33-3.36,0.99-4.72s1.63-2.42,2.9-3.17c1.27-0.75,2.78-1.12,4.52-1.12c2.46,0,4.39,0.76,5.81,2.28
				c1.42,1.52,2.13,3.64,2.13,6.36v1.09c0,0.56-0.46,1.02-1.02,1.02l-8.33,0c-0.77,0-1.31,0.86-0.89,1.51
				c0.19,0.3,0.42,0.56,0.69,0.79c0.66,0.56,1.51,0.84,2.55,0.84c1.7,0,4.41,0,5.38-1.17 M246.09,106.74
				c-1.19,0-2.02,0.59-2.49,1.76c-0.27,0.67,0.23,1.4,0.95,1.4l4.19,0v-0.42c0.02-0.87-0.2-1.54-0.66-2.02
				C247.62,106.98,246.95,106.74,246.09,106.74z"/>
			<path class="st3" d="M291.89,101.21h-4.91c-0.59,0-1.07,0.48-1.07,1.07v16.95c0,0.59-0.48,1.07-1.07,1.07h-3.52
				c-0.59,0-1.07-0.48-1.07-1.07v-16.95c0-0.59-0.48-1.07-1.07-1.07h-4.78c-0.59,0-1.07-0.48-1.07-1.07v-2.22
				c0-0.59,0.48-1.07,1.07-1.07h17.51c0.59,0,1.07,0.48,1.07,1.07v2.22C292.97,100.73,292.49,101.21,291.89,101.21z"/>
			<path class="st3" d="M308.87,110.35h-6.77c-0.59,0-1.07,0.48-1.07,1.07v3.46c0,0.59,0.48,1.07,1.07,1.07h8.38
				c0.59,0,1.07,0.48,1.07,1.07v2.2c0,0.59-0.48,1.07-1.07,1.07h-14.05c-0.59,0-1.07-0.48-1.07-1.07V97.92
				c0-0.59,0.48-1.07,1.07-1.07h14.08c0.59,0,1.07,0.48,1.07,1.07v2.22c0,0.59-0.48,1.07-1.07,1.07h-8.41
				c-0.59,0-1.07,0.48-1.07,1.07v2.8c0,0.59,0.48,1.07,1.07,1.07h6.77c0.59,0,1.07,0.48,1.07,1.07v2.04
				C309.94,109.86,309.46,110.35,308.87,110.35z"/>
			<path class="st3" d="M321.42,112.05l-1.61,1.76c-0.15,0.17-0.28,0.49-0.28,0.72v4.7c0,0.59-0.48,1.07-1.07,1.07h-3.52
				c-0.59,0-1.07-0.48-1.07-1.07V97.92c0-0.59,0.48-1.07,1.07-1.07h3.52c0.59,0,1.07,0.48,1.07,1.07v5.71
				c0,1.96,0.88,2.22,1.96,0.59l0.01-0.01l4.75-6.9c0.2-0.29,0.53-0.46,0.88-0.46h4.27c0.89,0,1.39,1.02,0.85,1.73l-6.18,8.07
				c-0.27,0.35-0.29,0.83-0.07,1.21l6.57,10.83c0.43,0.72-0.08,1.63-0.92,1.63h-4.19c-0.38,0-0.74-0.21-0.93-0.54l-4.37-7.63
				C322.02,111.86,321.64,111.81,321.42,112.05z"/>
		</g>
	</g>
</g>
</svg>
