<?xml version="1.0" encoding="utf-8"?>
<!-- Generator: Adobe Illustrator 24.0.1, SVG Export Plug-In . SVG Version: 6.00 Build 0)  -->
<svg version="1.1" id="Layer_1" xmlns="http://www.w3.org/2000/svg" xmlns:xlink="http://www.w3.org/1999/xlink" x="0px" y="0px"
	 viewBox="0 0 180 180" style="enable-background:new 0 0 180 180;" xml:space="preserve">
<style type="text/css">
	.st0{fill:none;stroke:#2C150D;stroke-width:5;stroke-linecap:round;stroke-miterlimit:10;}
	.st1{fill:#B98068;stroke:#2C150D;stroke-width:5;stroke-linecap:round;stroke-linejoin:round;stroke-miterlimit:10;}
	.st2{fill:none;stroke:#2C150D;stroke-width:5;stroke-linecap:round;stroke-linejoin:round;stroke-miterlimit:10;}
	.st3{fill:#2C150D;}
</style>
<g>
	<g>
		<line class="st0" x1="9.89" y1="143.26" x2="169.89" y2="143.26"/>
	</g>
	<g>
		<path class="st1" d="M134.99,58.51h-90c0,0-5.5,69.5,42.5,69.5h4.81c48,0,42.5-69.5,42.5-69.5h-90"/>
		<path class="st2" d="M134.36,58.63h13c0,0,26,1,11,25s-29,20-29,20"/>
	</g>
	<g>
		<line class="st2" x1="98.89" y1="43.26" x2="98.89" y2="3.26"/>
		<line class="st2" x1="80.89" y1="43.26" x2="80.89" y2="13.26"/>
	</g>
	<path class="st3" d="M28.9,171.35c0.66,0,1.18,0.6,1.07,1.26c-0.2,1.13-0.59,2.15-1.19,3.07c-0.81,1.25-1.94,2.22-3.4,2.91
		s-3.13,1.03-5,1.03c-3.09,0-5.52-1-7.3-3.01c-1.78-2.01-2.67-4.84-2.67-8.51v-1.16c0-2.3,0.4-4.31,1.2-6.03
		c0.8-1.72,1.96-3.06,3.46-4c1.51-0.94,3.25-1.41,5.23-1.41c2.85,0,5.15,0.75,6.88,2.25c1.44,1.25,2.36,2.88,2.77,4.91
		c0.13,0.66-0.38,1.29-1.06,1.29l-3.43,0c-0.53,0-0.98-0.4-1.06-0.93c-0.15-0.95-0.48-1.67-1-2.15c-0.68-0.62-1.71-0.93-3.1-0.93
		c-1.41,0-2.44,0.53-3.1,1.58c-0.66,1.05-1,2.73-1.03,5.04v1.66c0,2.5,0.31,4.29,0.94,5.37c0.63,1.08,1.71,1.61,3.25,1.61
		c1.3,0,2.3-0.31,2.99-0.92c0.52-0.46,0.86-1.13,1.01-2c0.09-0.52,0.53-0.91,1.06-0.91L28.9,171.35z"/>
	<path class="st3" d="M31.85,170.41c0-1.74,0.34-3.29,1.02-4.65c0.68-1.36,1.65-2.4,2.92-3.13s2.76-1.1,4.47-1.1
		c2.62,0,4.68,0.81,6.19,2.42c1.51,1.62,2.26,3.82,2.26,6.6v0.19c0,2.72-0.76,4.87-2.27,6.47c-1.51,1.59-3.56,2.39-6.15,2.39
		c-2.49,0-4.48-0.74-5.99-2.23c-1.51-1.49-2.32-3.5-2.44-6.05L31.85,170.41z M37.29,170.75c0,1.61,0.25,2.79,0.76,3.54
		c0.51,0.75,1.25,1.13,2.24,1.13c1.94,0,2.93-1.49,2.97-4.46v-0.55c0-3.13-1-4.69-3-4.69c-1.82,0-2.8,1.35-2.96,4.04L37.29,170.75z"
		/>
	<path class="st3" d="M52.31,178.22V166.7c0-0.59-0.48-1.07-1.07-1.07h-0.39c-0.59,0-1.07-0.48-1.07-1.07v-1.62
		c0-0.59,0.48-1.07,1.07-1.07h1.46v-1.39c0-1.99,0.59-3.53,1.76-4.63c1.17-1.1,2.82-1.64,4.94-1.64c0.52,0,1.07,0.05,1.65,0.15
		c0.52,0.09,0.9,0.54,0.91,1.06l0.01,3.12c-0.33-0.1-0.78-0.14-1.34-0.14c-1.65,0-2.47,0.71-2.47,2.13v1.34h2.33
		c0.59,0,1.07,0.48,1.07,1.07v1.62c0,0.59-0.48,1.07-1.07,1.07h-1.26c-0.59,0-1.07,0.48-1.07,1.07v11.52c0,0.59-0.48,1.07-1.07,1.07
		h-3.31C52.79,179.29,52.31,178.81,52.31,178.22z"/>
	<path class="st3" d="M64.29,178.22V166.7c0-0.59-0.48-1.07-1.07-1.07h-0.39c-0.59,0-1.07-0.48-1.07-1.07v-1.62
		c0-0.59,0.48-1.07,1.07-1.07h1.46v-1.39c0-1.99,0.59-3.53,1.76-4.63c1.17-1.1,2.82-1.64,4.94-1.64c0.52,0,1.07,0.05,1.65,0.15
		c0.52,0.09,0.9,0.54,0.91,1.06l0.01,3.12c-0.33-0.1-0.78-0.14-1.34-0.14c-1.65,0-2.47,0.71-2.47,2.13v1.34h2.33
		c0.59,0,1.07,0.48,1.07,1.07v1.62c0,0.59-0.48,1.07-1.07,1.07h-1.26c-0.59,0-1.07,0.48-1.07,1.07v11.52c0,0.59-0.48,1.07-1.07,1.07
		h-3.31C64.77,179.29,64.29,178.81,64.29,178.22z"/>
	<path class="st3" d="M106.89,178.26c-0.96,0.96-4.32,1.36-5.75,1.36c-2.68,0-4.85-0.8-6.51-2.39c-1.66-1.6-2.49-3.67-2.49-6.23
		v-0.45c0-1.78,0.33-3.36,0.99-4.72s1.63-2.42,2.9-3.17c1.27-0.75,2.78-1.12,4.52-1.12c2.46,0,4.39,0.76,5.81,2.28
		c1.42,1.52,2.13,3.64,2.13,6.36v1.09c0,0.56-0.46,1.02-1.02,1.02l-8.33,0c-0.77,0-1.31,0.86-0.89,1.51
		c0.19,0.3,0.42,0.56,0.69,0.79c0.66,0.56,1.51,0.84,2.55,0.84c1.7,0,4.41,0,5.38-1.17 M100.53,165.72c-1.19,0-2.02,0.59-2.49,1.76
		c-0.27,0.67,0.23,1.4,0.95,1.4l4.19,0v-0.42c0.02-0.87-0.2-1.54-0.66-2.02C102.06,165.96,101.39,165.72,100.53,165.72z"/>
	<path class="st3" d="M88.89,178.26c-0.96,0.96-4.32,1.36-5.75,1.36c-2.68,0-4.85-0.8-6.51-2.39c-1.66-1.6-2.49-3.67-2.49-6.23
		v-0.45c0-1.78,0.33-3.36,0.99-4.72s1.63-2.42,2.9-3.17c1.27-0.75,2.78-1.12,4.52-1.12c2.46,0,4.39,0.76,5.81,2.28
		c1.42,1.52,2.13,3.64,2.13,6.36v1.09c0,0.56-0.46,1.02-1.02,1.02l-8.33,0c-0.77,0-1.31,0.86-0.89,1.51
		c0.19,0.3,0.42,0.56,0.69,0.79c0.66,0.56,1.51,0.84,2.55,0.84c1.7,0,4.41,0,5.38-1.17 M82.53,165.72c-1.19,0-2.02,0.59-2.49,1.76
		c-0.27,0.67,0.23,1.4,0.95,1.4l4.19,0v-0.42c0.02-0.87-0.2-1.54-0.66-2.02C84.06,165.96,83.39,165.72,82.53,165.72z"/>
	<path class="st3" d="M128.33,160.2h-4.91c-0.59,0-1.07,0.48-1.07,1.07v16.95c0,0.59-0.48,1.07-1.07,1.07h-3.52
		c-0.59,0-1.07-0.48-1.07-1.07v-16.95c0-0.59-0.48-1.07-1.07-1.07h-4.78c-0.59,0-1.07-0.48-1.07-1.07v-2.22
		c0-0.59,0.48-1.07,1.07-1.07h17.51c0.59,0,1.07,0.48,1.07,1.07v2.22C129.41,159.72,128.93,160.2,128.33,160.2z"/>
	<path class="st3" d="M145.31,169.33h-6.77c-0.59,0-1.07,0.48-1.07,1.07v3.46c0,0.59,0.48,1.07,1.07,1.07h8.38
		c0.59,0,1.07,0.48,1.07,1.07v2.2c0,0.59-0.48,1.07-1.07,1.07h-14.05c-0.59,0-1.07-0.48-1.07-1.07V156.9c0-0.59,0.48-1.07,1.07-1.07
		h14.08c0.59,0,1.07,0.48,1.07,1.07v2.22c0,0.59-0.48,1.07-1.07,1.07h-8.41c-0.59,0-1.07,0.48-1.07,1.07v2.8
		c0,0.59,0.48,1.07,1.07,1.07h6.77c0.59,0,1.07,0.48,1.07,1.07v2.04C146.38,168.85,145.9,169.33,145.31,169.33z"/>
	<path class="st3" d="M157.86,171.04l-1.61,1.76c-0.15,0.17-0.28,0.49-0.28,0.72v4.7c0,0.59-0.48,1.07-1.07,1.07h-3.52
		c-0.59,0-1.07-0.48-1.07-1.07V156.9c0-0.59,0.48-1.07,1.07-1.07h3.52c0.59,0,1.07,0.48,1.07,1.07v5.71c0,1.96,0.88,2.22,1.96,0.59
		l0.01-0.01l4.75-6.9c0.2-0.29,0.53-0.46,0.88-0.46h4.27c0.89,0,1.39,1.02,0.85,1.73l-6.18,8.07c-0.27,0.35-0.29,0.83-0.07,1.21
		l6.57,10.83c0.43,0.72-0.08,1.63-0.92,1.63h-4.19c-0.38,0-0.74-0.21-0.93-0.54l-4.37-7.63
		C158.46,170.84,158.08,170.8,157.86,171.04z"/>
</g>
</svg>
